<svg width="21" height="20" viewBox="0 0 21 20" fill="none" xmlns="http://www.w3.org/2000/svg">
  <path d="M17.3617 14.6833V17.63C17.3618 17.841 17.2819 18.0441 17.138 18.1985C16.9942 18.3528 16.7972 18.4469 16.5867 18.4617C16.2225 18.4867 15.925 18.5 15.695 18.5C8.33086 18.5 2.36169 12.5308 2.36169 5.16667C2.36169 4.93667 2.37419 4.63917 2.40003 4.275C2.4148 4.06454 2.50885 3.86751 2.6632 3.72367C2.81755 3.57984 3.02071 3.4999 3.23169 3.5H6.17836C6.28173 3.4999 6.38144 3.53822 6.45814 3.60752C6.53483 3.67682 6.58302 3.77215 6.59336 3.875C6.61253 4.06667 6.63003 4.21917 6.64669 4.335C6.81231 5.49077 7.1517 6.61486 7.65336 7.66917C7.73253 7.83583 7.68086 8.035 7.53086 8.14167L5.73253 9.42667C6.83207 11.9887 8.87382 14.0305 11.4359 15.13L12.7192 13.335C12.7717 13.2617 12.8482 13.2091 12.9354 13.1864C13.0227 13.1637 13.1152 13.1723 13.1967 13.2108C14.2509 13.7116 15.3747 14.0501 16.53 14.215C16.6459 14.2317 16.7984 14.25 16.9884 14.2683C17.0911 14.2789 17.1862 14.3271 17.2553 14.4038C17.3244 14.4805 17.3627 14.5801 17.3625 14.6833H17.3617Z" fill="#33404F"/>
  <path d="M18.1951 8.5V2.66667M18.1951 2.66667L12.3617 2.66667M18.1951 2.66667L12.3617 8.5" stroke="#1898C0" stroke-width="2"/>
</svg>